<svg xmlns="http://www.w3.org/2000/svg" width="24" height="24" fill="none" stroke="currentColor" stroke-linecap="round" stroke-linejoin="round" stroke-width="2" viewBox="0 0 24 24"><rect width="3" height="8" x="13" y="2" rx="2"/><path d="M19 9v1h2a2 2 0 1 0-2-1"/><rect width="3" height="8" x="8" y="14" rx="2"/><path d="M5 16v-2H4a2 2 0 1 0 1 2"/><rect width="8" height="3" x="14" y="13" rx="2"/><path d="M16 19h-2v2a2 2 0 1 0 2-2"/><rect width="8" height="3" x="2" y="8" rx="2"/><path d="M9 5h1V4a2 2 0 1 0-1 1"/></svg>